<svg xmlns="http://www.w3.org/2000/svg" viewBox="0 0 1024 1024">
  <defs>
    <linearGradient id="bg" x1="196" y1="124" x2="828" y2="900" gradientUnits="userSpaceOnUse">
      <stop offset="0" stop-color="#0f766e"/>
      <stop offset="0.58" stop-color="#1d4ed8"/>
      <stop offset="1" stop-color="#312e81"/>
    </linearGradient>
    <filter id="shadow" x="-20%" y="-20%" width="140%" height="140%">
      <feDropShadow dx="0" dy="28" stdDeviation="32" flood-color="#0f172a" flood-opacity="0.28"/>
    </filter>
  </defs>

  <rect width="1024" height="1024" rx="228" fill="url(#bg)"/>
  <circle cx="782" cy="236" r="118" fill="#f59e0b" opacity="0.95"/>
  <circle cx="214" cy="820" r="150" fill="#22c55e" opacity="0.18"/>

  <g filter="url(#shadow)">
    <rect x="220" y="218" width="584" height="624" rx="96" fill="#f8fafc"/>
    <rect x="220" y="218" width="584" height="146" rx="96" fill="#0f172a"/>
    <path d="M220 314h584v80H220z" fill="#0f172a"/>
    <rect x="332" y="146" width="72" height="166" rx="36" fill="#e2e8f0"/>
    <rect x="620" y="146" width="72" height="166" rx="36" fill="#e2e8f0"/>

    <g fill="#cbd5e1">
      <rect x="308" y="456" width="86" height="72" rx="24"/>
      <rect x="468" y="456" width="86" height="72" rx="24"/>
      <rect x="628" y="456" width="86" height="72" rx="24"/>
      <rect x="308" y="590" width="86" height="72" rx="24"/>
      <rect x="468" y="590" width="86" height="72" rx="24"/>
      <rect x="628" y="590" width="86" height="72" rx="24"/>
    </g>

    <circle cx="604" cy="672" r="164" fill="#0f766e"/>
    <path d="M604 566v110l82 54" fill="none" stroke="#f8fafc" stroke-width="42" stroke-linecap="round" stroke-linejoin="round"/>
    <path d="M512 682l58 58 126-142" fill="none" stroke="#fbbf24" stroke-width="44" stroke-linecap="round" stroke-linejoin="round"/>
  </g>
</svg>
